<svg version="1.1" id="Layer_1" xmlns="http://www.w3.org/2000/svg" xmlns:xlink="http://www.w3.org/1999/xlink" x="0px" y="0px"
	 width="100%" viewBox="0 0 1772 1876" enable-background="new 0 0 1772 1876" xml:space="preserve">
<path fill="#FFFFFF" opacity="1.000000" stroke="none" 
	d="
M1773.000000,684.000000 
	C1773.000000,1082.000000 1773.000000,1479.500000 1773.000000,1877.000000 
	C1182.333374,1877.000000 591.666687,1877.000000 1.000000,1877.000000 
	C1.000000,1251.666626 1.000000,626.333313 1.000000,1.000000 
	C591.666687,1.000000 1182.333374,1.000000 1773.000000,1.000000 
	C1773.000000,228.500000 1773.000000,456.000000 1773.000000,684.000000 
M1184.863403,673.187866 
	C1190.588501,669.824036 1196.313477,666.460266 1202.736206,662.961731 
	C1211.166504,658.007141 1219.596924,653.052551 1228.717163,647.950256 
	C1238.883911,642.006836 1249.050537,636.063416 1259.895996,629.979004 
	C1270.977295,623.513611 1282.058594,617.048218 1293.837280,610.342651 
	C1307.034790,602.638855 1320.232178,594.935059 1334.098877,587.087158 
	C1348.906372,578.456360 1363.713745,569.825562 1379.182373,561.069946 
	C1392.809692,553.122253 1406.437012,545.174622 1420.763794,537.074585 
	C1424.508057,534.478516 1428.527832,532.200134 1431.949707,529.232422 
	C1448.470459,514.904724 1456.842773,496.655243 1456.958008,474.813934 
	C1457.112549,445.518860 1457.017578,416.222351 1456.988403,386.926483 
	C1456.976807,375.280701 1456.854858,363.635071 1456.684448,351.325348 
	C1456.152100,350.929199 1455.653198,350.475098 1455.082642,350.145233 
	C1427.257568,334.060120 1399.445312,317.952515 1371.588745,301.922150 
	C1353.839233,291.708099 1336.022705,281.610443 1317.793457,270.973602 
	C1274.123169,245.727112 1230.459961,220.468430 1186.781128,195.236588 
	C1098.984131,144.519012 1011.218994,93.745804 923.350159,43.152790 
	C899.175293,29.233435 874.482056,29.032425 850.205811,42.877750 
	C809.711914,65.972359 769.424438,89.428711 729.051697,112.735710 
	C661.283325,151.858124 593.505859,190.964844 525.755615,230.118637 
	C507.749756,240.524506 489.829132,251.077835 471.192688,261.827728 
	C430.719666,285.153473 390.174194,308.354858 349.817108,331.879486 
	C337.440247,339.094086 328.327820,349.590942 322.134583,363.357910 
	C320.410065,369.016174 317.342346,374.638275 317.188934,380.338806 
	C316.447723,407.887238 316.490356,435.456726 316.090118,463.940094 
	C316.063293,501.992004 316.025452,540.043945 316.020996,578.095825 
	C316.020294,584.070984 316.170959,590.046204 316.088196,596.942627 
	C316.060120,647.643860 316.030731,698.345032 316.013947,749.046265 
	C316.013611,750.036743 316.161835,751.027222 316.076843,752.939758 
	C316.050995,803.309143 316.023804,853.678528 316.009186,904.047913 
	C316.008881,905.038452 316.156097,906.028931 316.069580,907.940918 
	C316.049744,928.426392 315.795776,948.915100 316.071777,969.396545 
	C316.387390,992.818604 325.347900,1012.751526 344.702820,1025.957031 
	C362.642029,1038.196411 382.148956,1048.138062 401.353607,1059.643799 
	C444.606049,1084.618408 487.863678,1109.583862 531.109863,1134.569336 
	C637.630249,1196.111450 744.123169,1257.701050 850.685547,1319.170410 
	C867.600464,1328.927490 885.694397,1331.147461 904.721985,1326.406128 
	C918.280334,1323.027466 929.452759,1314.994385 941.231201,1308.200684 
	C1071.880371,1232.841431 1202.475708,1157.388794 1333.067261,1081.929688 
	C1353.088257,1070.361084 1373.016724,1058.632324 1393.466064,1046.981323 
	C1393.815186,1046.898315 1394.029053,1046.681885 1394.752319,1046.177246 
	C1395.493652,1045.708984 1396.234863,1045.240601 1397.641235,1044.642334 
	C1406.140259,1039.729004 1414.813477,1035.090942 1423.104004,1029.848022 
	C1443.797607,1016.761597 1455.762207,997.720093 1456.684814,973.404846 
	C1457.750854,945.314331 1456.826172,917.148315 1456.958252,888.119873 
	C1456.797729,860.147278 1444.794312,838.730042 1420.782349,824.499451 
	C1395.018799,809.230713 1368.959717,794.459534 1342.995361,779.530945 
	C1325.119629,769.252869 1307.185425,759.076355 1288.856201,748.296997 
	C1257.626465,730.245361 1226.375854,712.229431 1195.181641,694.116760 
	C1187.458374,689.632324 1179.917603,684.833801 1172.979980,680.084290 
	C1176.712158,677.864319 1180.444458,675.644287 1184.863403,673.187866 
M31.000294,1650.500000 
	C31.000294,1713.060059 31.000294,1775.619995 31.000294,1838.541992 
	C33.463955,1838.541992 35.273247,1838.541870 37.082542,1838.541870 
	C75.067032,1838.541626 113.052803,1838.712158 151.035141,1838.425903 
	C160.975723,1838.351074 171.042908,1837.626587 180.816452,1835.881470 
	C221.826523,1828.558594 249.871002,1801.398682 251.519485,1761.816040 
	C252.430466,1739.941772 245.964371,1720.909546 228.099121,1707.249756 
	C221.505219,1702.208008 213.703140,1698.746582 206.341370,1694.500488 
	C207.501389,1693.874634 209.034729,1693.038086 210.576447,1692.217285 
	C222.594910,1685.818359 232.670837,1677.334473 239.048141,1665.070312 
	C252.201889,1639.774536 244.956116,1604.220215 222.527328,1583.570557 
	C201.389282,1564.109497 175.728516,1556.922607 147.771927,1556.719971 
	C110.622398,1556.450684 73.469421,1556.657715 36.317924,1556.660156 
	C34.702637,1556.660156 33.087353,1556.660156 31.000294,1556.660156 
	C31.000294,1587.937378 31.000294,1618.718628 31.000294,1650.500000 
M1235.280151,1712.171875 
	C1229.777588,1685.281006 1224.243530,1658.396606 1218.817261,1631.490356 
	C1218.228516,1628.571289 1216.754639,1627.866577 1213.986450,1627.877441 
	C1191.158813,1627.967285 1168.330811,1627.925781 1145.502808,1627.944702 
	C1144.539795,1627.945435 1143.577026,1628.146973 1142.380127,1628.281372 
	C1142.674805,1629.625977 1142.851929,1630.760498 1143.173218,1631.852783 
	C1162.981445,1699.201660 1182.837524,1766.536621 1202.522827,1833.921509 
	C1203.614746,1837.658936 1205.444702,1838.343018 1208.878052,1838.325562 
	C1232.205322,1838.206909 1255.533325,1838.269897 1278.861206,1838.257935 
	C1280.483276,1838.257080 1282.105469,1838.124878 1283.860962,1838.047852 
	C1292.789795,1798.078613 1301.629272,1758.508911 1310.681274,1717.988281 
	C1311.343384,1719.986450 1311.830933,1721.148315 1312.114380,1722.358032 
	C1320.764526,1759.277710 1329.456421,1796.187866 1337.939087,1833.146118 
	C1338.851685,1837.122437 1340.335083,1838.414307 1344.520020,1838.377930 
	C1370.178711,1838.155273 1395.842651,1838.080078 1421.498779,1838.421021 
	C1426.759766,1838.490967 1428.523438,1836.650024 1429.893677,1831.955078 
	C1448.771240,1767.277588 1467.844360,1702.657349 1486.849487,1638.017090 
	C1487.768677,1634.890747 1488.502441,1631.709839 1489.364014,1628.394897 
	C1488.149170,1628.177368 1487.505737,1627.962036 1486.862183,1627.961426 
	C1463.701050,1627.939087 1440.539429,1628.000244 1417.379150,1627.859009 
	C1414.142822,1627.839233 1413.549927,1629.546631 1413.026123,1631.999512 
	C1405.976562,1665.008545 1398.893188,1698.010498 1391.815308,1731.013550 
	C1389.730103,1740.737427 1387.636353,1750.459473 1385.546387,1760.182373 
	C1385.234619,1760.172485 1384.922729,1760.162720 1384.610840,1760.152832 
	C1373.998291,1716.122925 1363.385742,1672.093018 1352.742188,1627.934448 
	C1327.841309,1627.934448 1303.527954,1627.980957 1279.215454,1627.879639 
	C1275.927734,1627.865845 1276.006348,1630.110718 1275.534058,1632.128540 
	C1267.688965,1665.639771 1259.863037,1699.155396 1252.027466,1732.668823 
	C1250.019287,1741.258423 1247.993164,1749.843750 1245.975220,1758.431030 
	C1245.648682,1758.397461 1245.322144,1758.364014 1244.995605,1758.330566 
	C1241.839233,1743.215210 1238.682861,1728.099854 1235.280151,1712.171875 
M789.122681,1738.521851 
	C789.122681,1771.621582 789.122681,1804.721313 789.122681,1837.878418 
	C813.686096,1837.878418 837.572815,1837.878418 861.578552,1837.878418 
	C861.578552,1744.106934 861.578552,1650.724976 861.578552,1557.171875 
	C837.353577,1557.171875 813.476807,1557.171875 788.960083,1557.171875 
	C788.960083,1591.243286 788.960083,1624.953491 788.960083,1658.609131 
	C752.611511,1658.609131 716.906677,1658.609131 680.776123,1658.609131 
	C680.776123,1624.574097 680.776123,1590.973633 680.776123,1557.139160 
	C656.465210,1557.139160 632.584656,1557.139160 608.418335,1557.139160 
	C608.418335,1650.858887 608.418335,1744.244751 608.418335,1837.949097 
	C632.585938,1837.949097 656.471863,1837.949097 681.025940,1837.949097 
	C681.025940,1801.000244 681.025940,1764.302124 681.025940,1727.643555 
	C717.398010,1727.643555 753.100769,1727.643555 789.122803,1727.643555 
	C789.122803,1731.223389 789.122803,1734.377075 789.122681,1738.521851 
M1696.512085,1768.973389 
	C1687.720215,1755.617188 1679.036743,1742.187378 1670.054077,1728.960815 
	C1668.015869,1725.959839 1668.174438,1723.968018 1670.176636,1721.104126 
	C1686.879883,1697.212891 1703.436157,1673.218750 1720.025879,1649.248169 
	C1724.724365,1642.459229 1729.385986,1635.644531 1734.478516,1628.239624 
	C1732.695312,1628.085938 1731.769775,1627.937012 1730.844360,1627.936646 
	C1704.346069,1627.925049 1677.847412,1627.865479 1651.350586,1628.065918 
	C1649.512207,1628.079834 1646.996826,1629.592041 1645.962769,1631.171265 
	C1632.549316,1651.654541 1619.371216,1672.291626 1606.044434,1692.831909 
	C1605.039062,1694.381836 1603.456421,1696.471558 1601.968384,1696.625122 
	C1597.230469,1697.114014 1592.410278,1696.806274 1586.892822,1696.806274 
	C1586.892822,1642.924072 1586.892822,1589.575317 1586.892822,1536.299805 
	C1562.895874,1536.299805 1539.643921,1536.299805 1516.343994,1536.299805 
	C1516.343994,1637.037354 1516.343994,1737.441040 1516.343994,1837.963135 
	C1539.915649,1837.963135 1563.163452,1837.963135 1586.992432,1837.963135 
	C1586.992432,1812.267456 1586.992432,1786.866455 1586.992432,1760.849609 
	C1591.670654,1760.849609 1595.802979,1761.081177 1599.895752,1760.778320 
	C1603.343750,1760.523315 1605.244019,1761.840210 1607.053711,1764.738281 
	C1621.523193,1787.908936 1636.223877,1810.935303 1650.698120,1834.103027 
	C1652.584106,1837.121460 1654.567627,1838.380249 1658.230225,1838.356445 
	C1684.227417,1838.187378 1710.226196,1838.272339 1736.224487,1838.252686 
	C1737.775757,1838.251465 1739.326782,1838.046387 1741.772705,1837.872437 
	C1726.489502,1814.590454 1711.710815,1792.076904 1696.512085,1768.973389 
M1033.227295,1833.769165 
	C1038.277954,1829.353027 1043.328735,1824.936890 1048.962646,1820.010742 
	C1048.962646,1826.299072 1048.962646,1832.023682 1048.962646,1837.953979 
	C1072.544189,1837.953979 1095.601562,1837.953979 1118.954834,1837.953979 
	C1118.954834,1767.930786 1118.954834,1698.220459 1118.954834,1628.219727 
	C1095.591187,1628.219727 1072.529907,1628.219727 1048.671143,1628.219727 
	C1048.671143,1633.537964 1048.671143,1638.645142 1048.671143,1644.923706 
	C1039.860229,1634.908081 1030.366943,1628.386597 1018.962646,1624.834961 
	C984.108704,1613.979980 938.275574,1627.097412 914.675964,1664.944336 
	C891.711426,1701.772583 889.287170,1741.119995 904.280640,1781.294189 
	C914.349304,1808.272705 933.038696,1828.058350 960.272461,1838.422485 
	C984.807190,1847.759766 1009.299255,1849.000977 1033.227295,1833.769165 
M535.467896,1690.039062 
	C538.750061,1690.039062 542.032166,1690.039062 545.499878,1690.039062 
	C545.499878,1669.057983 545.499878,1648.667114 545.499878,1627.712769 
	C527.623413,1627.712769 510.057495,1627.712769 491.929810,1627.712769 
	C491.929810,1608.434082 491.929810,1589.712036 491.929810,1570.959717 
	C468.077118,1570.959717 444.798279,1570.959717 421.022949,1570.959717 
	C421.022949,1589.898560 421.022949,1608.637939 421.022949,1627.954346 
	C407.481018,1627.954346 394.425812,1627.954346 381.341095,1627.954346 
	C381.341095,1648.922241 381.341095,1669.301880 381.341095,1690.167236 
	C394.481720,1690.167236 407.242645,1690.167236 420.486908,1690.167236 
	C420.486908,1692.447021 420.486755,1694.246582 420.486877,1696.046143 
	C420.488159,1715.876831 420.223480,1735.712524 420.608154,1755.535767 
	C420.788269,1764.816162 421.478455,1774.215698 423.233734,1783.311157 
	C427.693420,1806.420166 438.605133,1825.465942 460.282593,1836.735474 
	C475.086945,1844.431885 491.104828,1846.056763 507.423645,1844.811646 
	C527.142334,1843.306885 545.149658,1837.103516 560.461060,1824.068481 
	C563.085876,1821.833740 563.481445,1820.135376 561.588867,1817.007812 
	C552.540649,1802.054688 543.801208,1786.914917 534.930908,1771.853882 
	C534.296082,1770.776123 533.491638,1769.798462 532.656128,1768.619019 
	C531.392517,1769.811768 530.500549,1770.816162 529.453064,1771.617065 
	C521.432861,1777.749023 512.426636,1780.773071 502.827240,1776.765991 
	C493.602112,1772.915161 493.464722,1763.885986 493.082153,1755.444214 
	C493.074615,1755.277832 493.081299,1755.110962 493.081299,1754.944336 
	C493.081482,1735.280273 493.081665,1715.616333 493.081848,1695.952271 
	C493.081879,1694.169556 493.081848,1692.386841 493.081848,1690.039307 
	C507.246857,1690.039307 520.861328,1690.039307 535.467896,1690.039062 
M353.314423,1748.500000 
	C353.314423,1708.433105 353.314423,1668.366089 353.314423,1628.211182 
	C329.293518,1628.211182 305.924011,1628.211182 282.458893,1628.211182 
	C282.458893,1698.393066 282.458893,1768.226685 282.458893,1838.198730 
	C306.153473,1838.198730 329.536621,1838.198730 353.314575,1838.198730 
	C353.314575,1808.402954 353.314575,1778.951416 353.314423,1748.500000 
M292.761810,1600.768433 
	C300.888153,1607.041748 310.098206,1609.592651 320.316071,1609.160278 
	C341.414856,1608.267212 359.007904,1588.790527 357.678802,1567.623657 
	C356.274414,1545.257935 336.667480,1527.491333 315.349854,1529.267822 
	C298.476990,1530.673950 284.668396,1541.122192 279.871429,1557.009888 
	C274.774292,1573.891846 278.941223,1588.486328 292.761810,1600.768433 
z"/>
<path fill="#158B6E" opacity="1.000000" stroke="none" 
	d="
M1392.987915,1046.977539 
	C1373.016724,1058.632324 1353.088257,1070.361084 1333.067261,1081.929688 
	C1202.475708,1157.388794 1071.880371,1232.841431 941.231201,1308.200684 
	C929.452759,1314.994385 918.280334,1323.027466 904.721985,1326.406128 
	C885.694397,1331.147461 867.600464,1328.927490 850.685547,1319.170410 
	C744.123169,1257.701050 637.630249,1196.111450 531.109863,1134.569336 
	C487.863678,1109.583862 444.606049,1084.618408 401.186096,1058.946289 
	C402.061493,1057.500488 403.062561,1056.176758 404.154175,1056.097412 
	C411.254822,1055.580811 418.374939,1055.049805 425.489105,1055.043701 
	C505.545380,1054.974731 585.601746,1055.002808 665.658081,1054.991943 
	C669.892517,1054.991455 674.126892,1054.875977 678.696777,1054.876953 
	C746.477539,1093.870117 813.942749,1132.765747 881.315735,1171.820923 
	C885.111938,1174.021484 887.788147,1174.096802 891.628479,1171.865723 
	C948.457886,1138.849365 1005.381836,1105.995361 1062.310425,1073.150024 
	C1080.458496,1062.679321 1098.686035,1052.346436 1117.241943,1042.110229 
	C1118.562378,1042.485352 1119.533203,1042.938965 1120.471436,1042.879395 
	C1129.540161,1042.302124 1138.602295,1041.102417 1147.668335,1041.084473 
	C1223.213013,1040.935669 1298.758301,1041.077515 1374.302612,1040.874390 
	C1381.478271,1040.855103 1387.665649,1042.152710 1392.987915,1046.977539 
z"/>
<path fill="#4CFC99" opacity="1.000000" stroke="none" 
	d="
M471.869385,261.563477 
	C489.829132,251.077835 507.749756,240.524506 525.755615,230.118637 
	C593.505859,190.964844 661.283325,151.858124 729.051697,112.735710 
	C769.424438,89.428711 809.711914,65.972359 850.205811,42.877750 
	C874.482056,29.032425 899.175293,29.233435 923.350159,43.152790 
	C1011.218994,93.745804 1098.984131,144.519012 1186.781128,195.236588 
	C1230.459961,220.468430 1274.123169,245.727112 1317.762207,271.602448 
	C1315.630615,272.487518 1313.530518,272.966919 1311.430176,272.967834 
	C1226.073486,273.005493 1140.716919,272.999969 1055.360229,273.000214 
	C1052.864380,273.000214 1050.271240,272.582245 1047.901733,273.130219 
	C1045.776611,273.621674 1043.897583,275.177185 1041.557617,276.188110 
	C1039.313721,275.062897 1037.406128,274.040558 1035.532715,272.958771 
	C986.953674,244.906860 938.364746,216.871902 889.840332,188.725723 
	C887.320740,187.264236 885.599731,187.300247 883.116150,188.749557 
	C859.969177,202.256912 836.749146,215.639450 813.521362,229.007843 
	C791.025696,241.954865 768.495972,254.842621 745.983948,267.368713 
	C746.062134,261.751587 743.002014,260.925751 738.479248,260.930786 
	C654.122192,261.025055 569.765015,261.016205 485.407928,260.945892 
	C481.703400,260.942810 478.396973,260.836945 477.824402,267.517273 
	C475.130188,264.823608 473.499786,263.193542 471.869385,261.563477 
z"/>
<path fill="#14866C" opacity="1.000000" stroke="none" 
	d="
M31.000294,1650.000000 
	C31.000294,1618.718628 31.000294,1587.937378 31.000294,1556.660156 
	C33.087353,1556.660156 34.702637,1556.660156 36.317924,1556.660156 
	C73.469421,1556.657715 110.622398,1556.450684 147.771927,1556.719971 
	C175.728516,1556.922607 201.389282,1564.109497 222.527328,1583.570557 
	C244.956116,1604.220215 252.201889,1639.774536 239.048141,1665.070312 
	C232.670837,1677.334473 222.594910,1685.818359 210.576447,1692.217285 
	C209.034729,1693.038086 207.501389,1693.874634 206.341370,1694.500488 
	C213.703140,1698.746582 221.505219,1702.208008 228.099121,1707.249756 
	C245.964371,1720.909546 252.430466,1739.941772 251.519485,1761.816040 
	C249.871002,1801.398682 221.826523,1828.558594 180.816452,1835.881470 
	C171.042908,1837.626587 160.975723,1838.351074 151.035141,1838.425903 
	C113.052803,1838.712158 75.067032,1838.541626 37.082542,1838.541870 
	C35.273247,1838.541870 33.463955,1838.541992 31.000294,1838.541992 
	C31.000294,1775.619995 31.000294,1713.060059 31.000294,1650.000000 
M164.946686,1731.444214 
	C160.079849,1729.918213 155.270523,1727.337402 150.335144,1727.068115 
	C136.726425,1726.325806 123.064972,1726.548462 109.424316,1726.395752 
	C107.659103,1726.375977 105.893478,1726.392944 103.956284,1726.392944 
	C103.956284,1742.695068 103.956284,1758.294922 103.956284,1774.031860 
	C104.938477,1774.181152 105.739906,1774.408325 106.541588,1774.409180 
	C120.358795,1774.424438 134.183411,1774.664429 147.989090,1774.261841 
	C152.529831,1774.129150 157.321548,1772.994751 161.483002,1771.153198 
	C178.215103,1763.749512 180.255997,1742.764526 164.946686,1731.444214 
M103.754936,1651.497681 
	C103.754936,1656.593872 103.754936,1661.690063 103.754936,1667.009033 
	C118.002159,1667.009033 131.665756,1667.616211 145.251678,1666.848511 
	C160.691925,1665.976074 170.046814,1655.900269 169.421295,1642.445435 
	C168.946976,1632.243042 161.962158,1623.775024 150.101410,1622.170410 
	C138.636795,1620.619385 126.885727,1621.163452 115.258850,1620.846924 
	C111.502686,1620.744629 107.741386,1620.830933 103.754822,1620.830933 
	C103.754822,1631.203857 103.754822,1640.851440 103.754936,1651.497681 
z"/>
<path fill="#4EFF9A" opacity="1.000000" stroke="none" 
	d="
M1235.403320,1712.578125 
	C1238.682861,1728.099854 1241.839233,1743.215210 1244.995605,1758.330566 
	C1245.322144,1758.364014 1245.648682,1758.397461 1245.975220,1758.431030 
	C1247.993164,1749.843750 1250.019287,1741.258423 1252.027466,1732.668823 
	C1259.863037,1699.155396 1267.688965,1665.639771 1275.534058,1632.128540 
	C1276.006348,1630.110718 1275.927734,1627.865845 1279.215454,1627.879639 
	C1303.527954,1627.980957 1327.841309,1627.934448 1352.742188,1627.934448 
	C1363.385742,1672.093018 1373.998291,1716.122925 1384.610840,1760.152832 
	C1384.922729,1760.162720 1385.234619,1760.172485 1385.546387,1760.182373 
	C1387.636353,1750.459473 1389.730103,1740.737427 1391.815308,1731.013550 
	C1398.893188,1698.010498 1405.976562,1665.008545 1413.026123,1631.999512 
	C1413.549927,1629.546631 1414.142822,1627.839233 1417.379150,1627.859009 
	C1440.539429,1628.000244 1463.701050,1627.939087 1486.862183,1627.961426 
	C1487.505737,1627.962036 1488.149170,1628.177368 1489.364014,1628.394897 
	C1488.502441,1631.709839 1487.768677,1634.890747 1486.849487,1638.017090 
	C1467.844360,1702.657349 1448.771240,1767.277588 1429.893677,1831.955078 
	C1428.523438,1836.650024 1426.759766,1838.490967 1421.498779,1838.421021 
	C1395.842651,1838.080078 1370.178711,1838.155273 1344.520020,1838.377930 
	C1340.335083,1838.414307 1338.851685,1837.122437 1337.939087,1833.146118 
	C1329.456421,1796.187866 1320.764526,1759.277710 1312.114380,1722.358032 
	C1311.830933,1721.148315 1311.343384,1719.986450 1310.681274,1717.988281 
	C1301.629272,1758.508911 1292.789795,1798.078613 1283.860962,1838.047852 
	C1282.105469,1838.124878 1280.483276,1838.257080 1278.861206,1838.257935 
	C1255.533325,1838.269897 1232.205322,1838.206909 1208.878052,1838.325562 
	C1205.444702,1838.343018 1203.614746,1837.658936 1202.522827,1833.921509 
	C1182.837524,1766.536621 1162.981445,1699.201660 1143.173218,1631.852783 
	C1142.851929,1630.760498 1142.674805,1629.625977 1142.380127,1628.281372 
	C1143.577026,1628.146973 1144.539795,1627.945435 1145.502808,1627.944702 
	C1168.330811,1627.925781 1191.158813,1627.967285 1213.986450,1627.877441 
	C1216.754639,1627.866577 1218.228516,1628.571289 1218.817261,1631.490356 
	C1224.243530,1658.396606 1229.777588,1685.281006 1235.403320,1712.578125 
z"/>
<path fill="#4EFF9B" opacity="1.000000" stroke="none" 
	d="
M789.122742,1738.026245 
	C789.122803,1734.377075 789.122803,1731.223389 789.122803,1727.643555 
	C753.100769,1727.643555 717.398010,1727.643555 681.025940,1727.643555 
	C681.025940,1764.302124 681.025940,1801.000244 681.025940,1837.949097 
	C656.471863,1837.949097 632.585938,1837.949097 608.418335,1837.949097 
	C608.418335,1744.244751 608.418335,1650.858887 608.418335,1557.139160 
	C632.584656,1557.139160 656.465210,1557.139160 680.776123,1557.139160 
	C680.776123,1590.973633 680.776123,1624.574097 680.776123,1658.609131 
	C716.906677,1658.609131 752.611511,1658.609131 788.960083,1658.609131 
	C788.960083,1624.953491 788.960083,1591.243286 788.960083,1557.171875 
	C813.476807,1557.171875 837.353577,1557.171875 861.578552,1557.171875 
	C861.578552,1650.724976 861.578552,1744.106934 861.578552,1837.878418 
	C837.572815,1837.878418 813.686096,1837.878418 789.122681,1837.878418 
	C789.122681,1804.721313 789.122681,1771.621582 789.122742,1738.026245 
z"/>
<path fill="#4EFF9A" opacity="1.000000" stroke="none" 
	d="
M1696.722168,1769.268311 
	C1711.710815,1792.076904 1726.489502,1814.590454 1741.772705,1837.872437 
	C1739.326782,1838.046387 1737.775757,1838.251465 1736.224487,1838.252686 
	C1710.226196,1838.272339 1684.227417,1838.187378 1658.230225,1838.356445 
	C1654.567627,1838.380249 1652.584106,1837.121460 1650.698120,1834.103027 
	C1636.223877,1810.935303 1621.523193,1787.908936 1607.053711,1764.738281 
	C1605.244019,1761.840210 1603.343750,1760.523315 1599.895752,1760.778320 
	C1595.802979,1761.081177 1591.670654,1760.849609 1586.992432,1760.849609 
	C1586.992432,1786.866455 1586.992432,1812.267456 1586.992432,1837.963135 
	C1563.163452,1837.963135 1539.915649,1837.963135 1516.343994,1837.963135 
	C1516.343994,1737.441040 1516.343994,1637.037354 1516.343994,1536.299805 
	C1539.643921,1536.299805 1562.895874,1536.299805 1586.892822,1536.299805 
	C1586.892822,1589.575317 1586.892822,1642.924072 1586.892822,1696.806274 
	C1592.410278,1696.806274 1597.230469,1697.114014 1601.968384,1696.625122 
	C1603.456421,1696.471558 1605.039062,1694.381836 1606.044434,1692.831909 
	C1619.371216,1672.291626 1632.549316,1651.654541 1645.962769,1631.171265 
	C1646.996826,1629.592041 1649.512207,1628.079834 1651.350586,1628.065918 
	C1677.847412,1627.865479 1704.346069,1627.925049 1730.844360,1627.936646 
	C1731.769775,1627.937012 1732.695312,1628.085938 1734.478516,1628.239624 
	C1729.385986,1635.644531 1724.724365,1642.459229 1720.025879,1649.248169 
	C1703.436157,1673.218750 1686.879883,1697.212891 1670.176636,1721.104126 
	C1668.174438,1723.968018 1668.015869,1725.959839 1670.054077,1728.960815 
	C1679.036743,1742.187378 1687.720215,1755.617188 1696.722168,1769.268311 
z"/>
<path fill="#4EFF9A" opacity="1.000000" stroke="none" 
	d="
M1032.921631,1833.958008 
	C1009.299255,1849.000977 984.807190,1847.759766 960.272461,1838.422485 
	C933.038696,1828.058350 914.349304,1808.272705 904.280640,1781.294189 
	C889.287170,1741.119995 891.711426,1701.772583 914.675964,1664.944336 
	C938.275574,1627.097412 984.108704,1613.979980 1018.962646,1624.834961 
	C1030.366943,1628.386597 1039.860229,1634.908081 1048.671143,1644.923706 
	C1048.671143,1638.645142 1048.671143,1633.537964 1048.671143,1628.219727 
	C1072.529907,1628.219727 1095.591187,1628.219727 1118.954834,1628.219727 
	C1118.954834,1698.220459 1118.954834,1767.930786 1118.954834,1837.953979 
	C1095.601562,1837.953979 1072.544189,1837.953979 1048.962646,1837.953979 
	C1048.962646,1832.023682 1048.962646,1826.299072 1048.962646,1820.010742 
	C1043.328735,1824.936890 1038.277954,1829.353027 1032.921631,1833.958008 
M1040.240845,1705.322754 
	C1024.444458,1683.733887 994.327698,1681.785645 977.652710,1701.273804 
	C964.200684,1716.995728 962.443481,1742.101562 973.567810,1759.638306 
	C989.551575,1784.835693 1025.388550,1785.082153 1041.087280,1759.685425 
	C1052.039062,1741.967773 1051.362305,1723.749878 1040.240845,1705.322754 
z"/>
<path fill="#26AE7D" opacity="1.000000" stroke="none" 
	d="
M1289.277344,748.854492 
	C1307.185425,759.076355 1325.119629,769.252869 1342.995361,779.530945 
	C1368.959717,794.459534 1395.018799,809.230713 1420.782349,824.499451 
	C1444.794312,838.730042 1456.797729,860.147278 1456.502197,888.513794 
	C1452.056519,888.605164 1448.067871,888.054749 1444.077393,888.040833 
	C1420.440918,887.958191 1396.804199,888.000000 1373.167480,888.000000 
	C1333.551147,888.000000 1293.934570,887.973450 1254.318604,888.086975 
	C1252.539673,888.092041 1250.764526,889.366577 1248.634766,890.001587 
	C1202.877319,863.737183 1157.460571,837.541931 1112.072632,811.296997 
	C1084.697144,795.467529 1057.366089,779.560791 1029.984253,763.418213 
	C1029.613525,762.757263 1029.273804,762.366882 1028.936157,761.514771 
	C1029.018311,757.039246 1029.098267,753.025391 1029.635498,749.010498 
	C1113.271606,749.006287 1196.450317,749.004761 1279.628906,748.993896 
	C1282.845093,748.993469 1286.061157,748.903015 1289.277344,748.854492 
z"/>
<path fill="#42EA93" opacity="1.000000" stroke="none" 
	d="
M1041.909912,276.263306 
	C1043.897583,275.177185 1045.776611,273.621674 1047.901733,273.130219 
	C1050.271240,272.582245 1052.864380,273.000214 1055.360229,273.000214 
	C1140.716919,272.999969 1226.073486,273.005493 1311.430176,272.967834 
	C1313.530518,272.966919 1315.630615,272.487518 1317.983643,271.845947 
	C1336.022705,281.610443 1353.839233,291.708099 1371.588745,301.922150 
	C1399.445312,317.952515 1427.257568,334.060120 1455.082642,350.145233 
	C1455.653198,350.475098 1456.152100,350.929199 1456.399170,351.729095 
	C1455.357422,352.470642 1454.564087,352.744324 1453.849854,353.155518 
	C1429.668213,367.077545 1405.449097,380.935669 1381.338623,394.980164 
	C1370.323608,401.396515 1359.525024,408.184204 1348.285156,414.834900 
	C1345.862671,415.866547 1343.723022,416.758881 1341.714478,417.885223 
	C1332.201050,423.220093 1322.723633,428.618866 1313.070801,433.682495 
	C1312.072388,432.828369 1311.258667,432.248505 1310.397461,431.750244 
	C1272.648682,409.908691 1234.916992,388.037262 1197.137085,366.249634 
	C1161.116943,345.476868 1125.014160,324.846863 1089.011475,304.043915 
	C1073.229492,294.924774 1057.605591,285.531860 1041.909912,276.263306 
z"/>
<path fill="#1D9C75" opacity="1.000000" stroke="none" 
	d="
M1248.987549,890.049805 
	C1250.764526,889.366577 1252.539673,888.092041 1254.318604,888.086975 
	C1293.934570,887.973450 1333.551147,888.000000 1373.167480,888.000000 
	C1396.804199,888.000000 1420.440918,887.958191 1444.077393,888.040833 
	C1448.067871,888.054749 1452.056519,888.605164 1456.405762,888.961426 
	C1456.826172,917.148315 1457.750854,945.314331 1456.684814,973.404846 
	C1455.762207,997.720093 1443.797607,1016.761597 1423.104004,1029.848022 
	C1414.813477,1035.090942 1406.140259,1039.729004 1397.245605,1044.401123 
	C1394.925049,1043.091919 1394.487061,1043.438721 1394.107666,1046.331787 
	C1394.029053,1046.681885 1393.815186,1046.898315 1393.227051,1046.979492 
	C1387.665649,1042.152710 1381.478271,1040.855103 1374.302612,1040.874390 
	C1298.758301,1041.077515 1223.213013,1040.935669 1147.668335,1041.084473 
	C1138.602295,1041.102417 1129.540161,1042.302124 1120.471436,1042.879395 
	C1119.533203,1042.938965 1118.562378,1042.485352 1117.438843,1041.827881 
	C1182.574829,1003.661194 1247.878662,965.936401 1313.714355,927.904297 
	C1306.703857,923.888123 1300.648560,920.490051 1294.661621,916.975464 
	C1279.420654,908.028076 1264.210205,899.028503 1248.987549,890.049805 
z"/>
<path fill="#1C9B75" opacity="1.000000" stroke="none" 
	d="
M678.361328,1054.813965 
	C674.126892,1054.875977 669.892517,1054.991455 665.658081,1054.991943 
	C585.601746,1055.002808 505.545380,1054.974731 425.489105,1055.043701 
	C418.374939,1055.049805 411.254822,1055.580811 404.154175,1056.097412 
	C403.062561,1056.176758 402.061493,1057.500488 400.992065,1058.670166 
	C382.148956,1048.138062 362.642029,1038.196411 344.702820,1025.957031 
	C325.347900,1012.751526 316.387390,992.818604 316.071777,969.396545 
	C315.795776,948.915100 316.049744,928.426392 316.604858,907.476868 
	C360.207367,907.008545 403.274658,907.030762 446.341827,906.957214 
	C450.452667,906.950195 454.562469,906.344910 458.752563,906.477661 
	C458.556061,912.865845 458.148804,918.792847 458.110535,924.722168 
	C458.102600,925.957336 459.149414,927.736816 460.232361,928.364441 
	C516.545959,961.002380 572.927979,993.522095 629.272583,1026.106567 
	C645.681580,1035.596069 662.000854,1045.240601 678.361328,1054.813965 
z"/>
<path fill="#44EE94" opacity="1.000000" stroke="none" 
	d="
M471.531036,261.695618 
	C473.499786,263.193542 475.130188,264.823608 477.824402,267.517273 
	C478.396973,260.836945 481.703400,260.942810 485.407928,260.945892 
	C569.765015,261.016205 654.122192,261.025055 738.479248,260.930786 
	C743.002014,260.925751 746.062134,261.751587 745.723328,267.606659 
	C737.999329,272.343414 730.449707,276.302155 723.093628,280.592651 
	C695.035706,296.957642 667.087036,313.510254 639.005554,329.834442 
	C618.740723,341.614685 598.330200,353.144257 577.873779,364.406921 
	C575.891357,363.685486 574.020203,363.045227 572.148315,363.043304 
	C519.483765,362.989410 466.819183,363.012207 414.154602,362.995300 
	C383.656677,362.985535 353.158783,362.928894 322.660858,362.893341 
	C328.327820,349.590942 337.440247,339.094086 349.817108,331.879486 
	C390.174194,308.354858 430.719666,285.153473 471.531036,261.695618 
z"/>
<path fill="#14866D" opacity="1.000000" stroke="none" 
	d="
M534.971863,1690.039185 
	C520.861328,1690.039307 507.246857,1690.039307 493.081848,1690.039307 
	C493.081848,1692.386841 493.081879,1694.169556 493.081848,1695.952271 
	C493.081665,1715.616333 493.081482,1735.280273 493.081299,1754.944336 
	C493.081299,1755.110962 493.074615,1755.277832 493.082153,1755.444214 
	C493.464722,1763.885986 493.602112,1772.915161 502.827240,1776.765991 
	C512.426636,1780.773071 521.432861,1777.749023 529.453064,1771.617065 
	C530.500549,1770.816162 531.392517,1769.811768 532.656128,1768.619019 
	C533.491638,1769.798462 534.296082,1770.776123 534.930908,1771.853882 
	C543.801208,1786.914917 552.540649,1802.054688 561.588867,1817.007812 
	C563.481445,1820.135376 563.085876,1821.833740 560.461060,1824.068481 
	C545.149658,1837.103516 527.142334,1843.306885 507.423645,1844.811646 
	C491.104828,1846.056763 475.086945,1844.431885 460.282593,1836.735474 
	C438.605133,1825.465942 427.693420,1806.420166 423.233734,1783.311157 
	C421.478455,1774.215698 420.788269,1764.816162 420.608154,1755.535767 
	C420.223480,1735.712524 420.488159,1715.876831 420.486877,1696.046143 
	C420.486755,1694.246582 420.486908,1692.447021 420.486908,1690.167236 
	C407.242645,1690.167236 394.481720,1690.167236 381.341095,1690.167236 
	C381.341095,1669.301880 381.341095,1648.922241 381.341095,1627.954346 
	C394.425812,1627.954346 407.481018,1627.954346 421.022949,1627.954346 
	C421.022949,1608.637939 421.022949,1589.898560 421.022949,1570.959717 
	C444.798279,1570.959717 468.077118,1570.959717 491.929810,1570.959717 
	C491.929810,1589.712036 491.929810,1608.434082 491.929810,1627.712769 
	C510.057495,1627.712769 527.623413,1627.712769 545.499878,1627.712769 
	C545.499878,1648.667114 545.499878,1669.057983 545.499878,1690.039062 
	C542.032166,1690.039062 538.750061,1690.039062 534.971863,1690.039185 
z"/>
<path fill="#2DBF83" opacity="1.000000" stroke="none" 
	d="
M316.240784,752.017700 
	C316.161835,751.027222 316.013611,750.036743 316.013947,749.046265 
	C316.030731,698.345032 316.060120,647.643860 316.592499,596.478394 
	C325.875610,595.676086 334.653442,595.080994 343.433441,595.046509 
	C374.064240,594.926331 404.695984,594.933044 435.326813,595.046509 
	C443.105835,595.075317 450.882751,595.677979 458.740753,596.478271 
	C458.846985,647.307861 458.874451,697.676086 458.889618,748.044373 
	C458.889923,749.035278 458.746216,750.026123 458.221741,751.014709 
	C419.363037,751.008301 380.952118,750.942749 342.541626,751.046509 
	C333.773865,751.070190 325.007690,751.678467 316.240784,752.017700 
z"/>
<path fill="#24AC7C" opacity="1.000000" stroke="none" 
	d="
M316.158813,752.478760 
	C325.007690,751.678467 333.773865,751.070190 342.541626,751.046509 
	C380.952118,750.942749 419.363037,751.008301 458.300903,751.476074 
	C458.852112,802.308105 458.877533,852.676392 458.890869,903.044678 
	C458.891113,904.035522 458.748657,905.026428 458.672760,906.017334 
	C454.562469,906.344910 450.452667,906.950195 446.341827,906.957214 
	C403.274658,907.030762 360.207367,907.008545 316.687317,907.016113 
	C316.156097,906.028931 316.008881,905.038452 316.009186,904.047913 
	C316.023804,853.678528 316.050995,803.309143 316.158813,752.478760 
z"/>
<path fill="#2CBD83" opacity="1.000000" stroke="none" 
	d="
M1289.066772,748.575745 
	C1286.061157,748.903015 1282.845093,748.993469 1279.628906,748.993896 
	C1196.450317,749.004761 1113.271606,749.006287 1029.525635,748.551880 
	C1028.949585,713.187561 1028.914917,678.280762 1028.944458,643.374023 
	C1028.957031,628.586609 1029.104492,613.799255 1029.532104,599.065186 
	C1036.809448,603.034424 1043.769897,606.907593 1050.676758,610.874023 
	C1074.012939,624.275330 1097.307129,637.749512 1120.663574,651.115112 
	C1133.048706,658.202576 1145.528931,665.123413 1158.174072,672.381714 
	C1163.018921,675.155884 1167.656006,677.667725 1172.292969,680.179626 
	C1179.917603,684.833801 1187.458374,689.632324 1195.181641,694.116760 
	C1226.375854,712.229431 1257.626465,730.245361 1289.066772,748.575745 
z"/>
<path fill="#36D28A" opacity="1.000000" stroke="none" 
	d="
M458.660614,596.017029 
	C450.882751,595.677979 443.105835,595.075317 435.326813,595.046509 
	C404.695984,594.933044 374.064240,594.926331 343.433441,595.046509 
	C334.653442,595.080994 325.875610,595.676086 316.674194,596.017700 
	C316.170959,590.046204 316.020294,584.070984 316.020996,578.095825 
	C316.025452,540.043945 316.063293,501.992004 316.577576,463.462463 
	C319.681885,462.656555 322.298248,462.046844 324.915649,462.042389 
	C361.549164,461.979889 398.182983,461.941559 434.816315,462.046082 
	C442.763580,462.068756 450.709167,462.676147 458.737366,463.475464 
	C458.842712,500.991180 458.878571,538.045654 458.878845,575.100159 
	C458.878906,582.072449 458.737030,589.044739 458.660614,596.017029 
z"/>
<path fill="#3EE190" opacity="1.000000" stroke="none" 
	d="
M458.655548,463.014160 
	C450.709167,462.676147 442.763580,462.068756 434.816315,462.046082 
	C398.182983,461.941559 361.549164,461.979889 324.915649,462.042389 
	C322.298248,462.046844 319.681885,462.656555 316.660034,463.001801 
	C316.490356,435.456726 316.447723,407.887238 317.188934,380.338806 
	C317.342346,374.638275 320.410065,369.016174 322.397705,363.125610 
	C353.158783,362.928894 383.656677,362.985535 414.154602,362.995300 
	C466.819183,363.012207 519.483765,362.989410 572.148315,363.043304 
	C574.020203,363.045227 575.891357,363.685486 577.594727,364.648193 
	C569.819519,369.546631 562.159973,373.734619 554.614746,378.119385 
	C523.854858,395.994934 493.151855,413.968475 462.354218,431.778625 
	C459.651794,433.341461 458.775116,435.096313 458.818695,438.105530 
	C458.938995,446.405884 458.732697,454.710968 458.655548,463.014160 
z"/>
<path fill="#14866D" opacity="1.000000" stroke="none" 
	d="
M353.314514,1749.000000 
	C353.314575,1778.951416 353.314575,1808.402954 353.314575,1838.198730 
	C329.536621,1838.198730 306.153473,1838.198730 282.458893,1838.198730 
	C282.458893,1768.226685 282.458893,1698.393066 282.458893,1628.211182 
	C305.924011,1628.211182 329.293518,1628.211182 353.314423,1628.211182 
	C353.314423,1668.366089 353.314423,1708.433105 353.314514,1749.000000 
z"/>
<path fill="#14886D" opacity="1.000000" stroke="none" 
	d="
M1348.628296,414.803467 
	C1359.525024,408.184204 1370.323608,401.396515 1381.338623,394.980164 
	C1405.449097,380.935669 1429.668213,367.077545 1453.849854,353.155518 
	C1454.564087,352.744324 1455.357422,352.470642 1456.448486,352.061096 
	C1456.854858,363.635071 1456.976807,375.280701 1456.988403,386.926483 
	C1457.017578,416.222351 1457.112549,445.518860 1456.958008,474.813934 
	C1456.842773,496.655243 1448.470459,514.904724 1431.949707,529.232422 
	C1428.527832,532.200134 1424.508057,534.478516 1420.391235,536.745911 
	C1418.821289,532.855103 1418.136475,529.007019 1416.336304,525.781311 
	C1409.221069,513.032410 1401.616943,500.557098 1394.456055,487.832825 
	C1385.342163,471.637817 1376.475464,455.303589 1367.517822,439.020660 
	C1365.677856,435.675964 1363.656738,432.400269 1362.159912,428.904022 
	C1359.395264,422.447296 1357.630981,415.207611 1348.628296,414.803467 
z"/>
<path fill="#1B9773" opacity="1.000000" stroke="none" 
	d="
M1348.285156,414.834930 
	C1357.630981,415.207611 1359.395264,422.447296 1362.159912,428.904022 
	C1363.656738,432.400269 1365.677856,435.675964 1367.517822,439.020660 
	C1376.475464,455.303589 1385.342163,471.637817 1394.456055,487.832825 
	C1401.616943,500.557098 1409.221069,513.032410 1416.336304,525.781311 
	C1418.136475,529.007019 1418.821289,532.855103 1420.041504,536.822083 
	C1406.437012,545.174622 1392.809692,553.122253 1378.473389,561.053955 
	C1376.048096,559.096924 1373.956909,557.374023 1372.679443,555.177673 
	C1366.634766,544.785095 1360.830078,534.253174 1354.905640,523.790283 
	C1349.378418,514.029053 1343.723145,504.339355 1338.277466,494.533142 
	C1330.596191,480.701233 1323.003784,466.819244 1315.483032,452.899445 
	C1312.753906,447.848328 1310.339844,442.626953 1308.005737,437.258148 
	C1309.897461,436.020294 1311.565308,435.007568 1313.233276,433.994873 
	C1322.723633,428.618866 1332.201050,423.220093 1341.714478,417.885223 
	C1343.723022,416.758881 1345.862671,415.866547 1348.285156,414.834930 
z"/>
<path fill="#23A87A" opacity="1.000000" stroke="none" 
	d="
M1307.781982,437.483246 
	C1310.339844,442.626953 1312.753906,447.848328 1315.483032,452.899445 
	C1323.003784,466.819244 1330.596191,480.701233 1338.277466,494.533142 
	C1343.723145,504.339355 1349.378418,514.029053 1354.905640,523.790283 
	C1360.830078,534.253174 1366.634766,544.785095 1372.679443,555.177673 
	C1373.956909,557.374023 1376.048096,559.096924 1378.142822,561.116333 
	C1363.713745,569.825562 1348.906372,578.456360 1333.439941,586.968445 
	C1326.533691,575.929565 1320.121094,565.099548 1314.093384,554.059448 
	C1309.652954,545.926514 1306.020874,537.347229 1301.484497,529.272522 
	C1294.034180,516.010925 1286.067017,503.040802 1278.469849,489.860077 
	C1274.834961,483.553833 1271.546387,477.047852 1268.105591,470.629883 
	C1266.703979,468.015564 1265.314697,465.394745 1264.101807,462.492798 
	C1278.783203,453.966858 1293.282593,445.725037 1307.781982,437.483246 
z"/>
<path fill="#2AB881" opacity="1.000000" stroke="none" 
	d="
M1263.919800,462.776917 
	C1265.314697,465.394745 1266.703979,468.015564 1268.105591,470.629883 
	C1271.546387,477.047852 1274.834961,483.553833 1278.469849,489.860077 
	C1286.067017,503.040802 1294.034180,516.010925 1301.484497,529.272522 
	C1306.020874,537.347229 1309.652954,545.926514 1314.093384,554.059448 
	C1320.121094,565.099548 1326.533691,575.929565 1333.105347,587.040527 
	C1320.232178,594.935059 1307.034790,602.638855 1293.437988,610.060425 
	C1288.078979,601.419128 1282.956543,593.150757 1278.223389,584.665222 
	C1275.587891,579.939941 1273.898438,574.686279 1271.254395,569.966614 
	C1266.885864,562.168762 1261.909668,554.712158 1257.517578,546.926697 
	C1251.276123,535.862915 1245.364868,524.613464 1239.250244,513.477417 
	C1234.205688,504.289795 1229.070923,495.151611 1224.182007,485.719513 
	C1237.565308,477.890625 1250.742554,470.333771 1263.919800,462.776917 
z"/>
<path fill="#31C787" opacity="1.000000" stroke="none" 
	d="
M1223.976074,485.991577 
	C1229.070923,495.151611 1234.205688,504.289795 1239.250244,513.477417 
	C1245.364868,524.613464 1251.276123,535.862915 1257.517578,546.926697 
	C1261.909668,554.712158 1266.885864,562.168762 1271.254395,569.966614 
	C1273.898438,574.686279 1275.587891,579.939941 1278.223389,584.665222 
	C1282.956543,593.150757 1288.078979,601.419128 1293.089355,610.180542 
	C1282.058594,617.048218 1270.977295,623.513611 1259.236328,629.895386 
	C1258.065918,629.387512 1257.371094,629.064453 1257.073364,628.523010 
	C1254.306396,623.492737 1251.686279,618.380798 1248.873535,613.376953 
	C1242.881714,602.717163 1236.843140,592.083008 1230.736328,581.488770 
	C1228.015137,576.767700 1224.866333,572.284363 1222.297485,567.486450 
	C1218.551514,560.490479 1215.229980,553.268494 1211.582397,546.217957 
	C1208.853760,540.943726 1205.957153,535.753296 1203.021240,530.590393 
	C1200.616455,526.361755 1197.714478,522.384766 1195.640747,518.008301 
	C1193.684570,513.880005 1192.521484,509.375885 1191.211914,504.764343 
	C1202.268311,498.324951 1213.122192,492.158264 1223.976074,485.991577 
z"/>
<path fill="#38D58C" opacity="1.000000" stroke="none" 
	d="
M1191.009521,505.037048 
	C1192.521484,509.375885 1193.684570,513.880005 1195.640747,518.008301 
	C1197.714478,522.384766 1200.616455,526.361755 1203.021240,530.590393 
	C1205.957153,535.753296 1208.853760,540.943726 1211.582397,546.217957 
	C1215.229980,553.268494 1218.551514,560.490479 1222.297485,567.486450 
	C1224.866333,572.284363 1228.015137,576.767700 1230.736328,581.488770 
	C1236.843140,592.083008 1242.881714,602.717163 1248.873535,613.376953 
	C1251.686279,618.380798 1254.306396,623.492737 1257.073364,628.523010 
	C1257.371094,629.064453 1258.065918,629.387512 1258.896973,629.965942 
	C1249.050537,636.063416 1238.883911,642.006836 1228.320068,647.677307 
	C1225.722656,644.157043 1223.415771,640.975586 1221.355591,637.641663 
	C1219.698730,634.960266 1218.395264,632.063354 1216.839722,629.315918 
	C1210.882202,618.793823 1204.821777,608.329651 1198.920776,597.776123 
	C1191.309204,584.163452 1183.744019,570.523743 1176.292114,556.823242 
	C1170.979492,547.056091 1165.841675,537.192627 1160.750732,527.307800 
	C1160.107544,526.058899 1160.225098,524.418213 1160.202393,522.696533 
	C1170.612671,516.635071 1180.811035,510.836060 1191.009521,505.037048 
z"/>
<path fill="#14866D" opacity="1.000000" stroke="none" 
	d="
M292.490540,1600.536865 
	C278.941223,1588.486328 274.774292,1573.891846 279.871429,1557.009888 
	C284.668396,1541.122192 298.476990,1530.673950 315.349854,1529.267822 
	C336.667480,1527.491333 356.274414,1545.257935 357.678802,1567.623657 
	C359.007904,1588.790527 341.414856,1608.267212 320.316071,1609.160278 
	C310.098206,1609.592651 300.888153,1607.041748 292.490540,1600.536865 
z"/>
<path fill="#3EE290" opacity="1.000000" stroke="none" 
	d="
M1159.990234,522.959045 
	C1160.225098,524.418213 1160.107544,526.058899 1160.750732,527.307800 
	C1165.841675,537.192627 1170.979492,547.056091 1176.292114,556.823242 
	C1183.744019,570.523743 1191.309204,584.163452 1198.920776,597.776123 
	C1204.821777,608.329651 1210.882202,618.793823 1216.839722,629.315918 
	C1218.395264,632.063354 1219.698730,634.960266 1221.355591,637.641663 
	C1223.415771,640.975586 1225.722656,644.157043 1227.975098,647.751160 
	C1219.596924,653.052551 1211.166504,658.007141 1202.250977,662.706543 
	C1198.555298,656.524414 1195.447266,650.539246 1192.113281,644.682739 
	C1185.166626,632.480530 1178.008911,620.397949 1171.108765,608.169800 
	C1164.036377,595.636597 1157.007690,583.073486 1150.260132,570.364014 
	C1144.617310,559.735657 1139.407837,548.877197 1134.311523,537.953796 
	C1143.074585,532.844299 1151.532349,527.901672 1159.990234,522.959045 
z"/>
<path fill="#46F395" opacity="1.000000" stroke="none" 
	d="
M1172.636475,680.131958 
	C1167.656006,677.667725 1163.018921,675.155884 1158.154297,672.014465 
	C1150.472412,657.631104 1143.133667,643.813171 1135.535278,630.139465 
	C1125.642700,612.336914 1115.386719,594.734741 1105.625610,576.861511 
	C1102.508179,571.153259 1100.467773,564.856689 1098.156738,558.572266 
	C1103.600830,555.368408 1108.822632,552.421570 1114.412842,549.663635 
	C1115.930542,551.826782 1117.101196,553.788818 1118.225586,555.777100 
	C1128.815918,574.502808 1139.455566,593.201111 1149.963623,611.972961 
	C1157.300293,625.079224 1164.418457,638.307617 1171.703003,651.443298 
	C1175.788452,658.810425 1180.014038,666.099915 1184.176514,673.424316 
	C1180.444458,675.644287 1176.712158,677.864319 1172.636475,680.131958 
z"/>
<path fill="#42EA93" opacity="1.000000" stroke="none" 
	d="
M1184.520020,673.306152 
	C1180.014038,666.099915 1175.788452,658.810425 1171.703003,651.443298 
	C1164.418457,638.307617 1157.300293,625.079224 1149.963623,611.972961 
	C1139.455566,593.201111 1128.815918,574.502808 1118.225586,555.777100 
	C1117.101196,553.788818 1115.930542,551.826782 1114.698364,549.433472 
	C1121.079102,545.383118 1127.542847,541.751892 1134.006470,538.120728 
	C1139.407837,548.877197 1144.617310,559.735657 1150.260132,570.364014 
	C1157.007690,583.073486 1164.036377,595.636597 1171.108765,608.169800 
	C1178.008911,620.397949 1185.166626,632.480530 1192.113281,644.682739 
	C1195.447266,650.539246 1198.555298,656.524414 1201.902100,662.773926 
	C1196.313477,666.460266 1190.588501,669.824036 1184.520020,673.306152 
z"/>
<path fill="#158B6E" opacity="1.000000" stroke="none" 
	d="
M1394.429932,1046.254517 
	C1394.487061,1043.438721 1394.925049,1043.091919 1396.913086,1044.466187 
	C1396.234863,1045.240601 1395.493652,1045.708984 1394.429932,1046.254517 
z"/>
<path fill="#FFFFFF" opacity="1.000000" stroke="none" 
	d="
M1134.311523,537.953857 
	C1127.542847,541.751892 1121.079102,545.383118 1114.329834,549.244507 
	C1108.822632,552.421570 1103.600830,555.368408 1097.806641,558.639404 
	C1080.685181,568.497864 1064.103027,577.975525 1047.603760,587.595520 
	C1041.367310,591.231750 1035.322754,595.196716 1029.190674,599.011902 
	C1029.104492,613.799255 1028.957031,628.586609 1028.944458,643.374023 
	C1028.914917,678.280762 1028.949585,713.187561 1029.068115,748.552979 
	C1029.098267,753.025391 1029.018311,757.039246 1028.618652,761.529724 
	C1027.875488,762.025635 1027.451904,762.044861 1026.829102,761.783875 
	C1026.064209,761.152405 1025.509766,760.781433 1024.931274,760.452759 
	C993.445801,742.558044 961.945007,724.690186 930.483398,706.753540 
	C924.928040,703.586426 919.535950,700.132874 913.870667,696.540894 
	C907.225159,692.533752 900.409668,689.299194 894.433228,684.919617 
	C888.476318,680.554199 883.492188,680.759399 878.234985,685.436157 
	C878.114624,685.543213 878.043396,685.705383 877.595947,685.900146 
	C869.834900,690.328430 862.427246,694.698364 854.673706,699.119995 
	C843.556519,705.489990 832.785156,711.808289 821.673096,718.181335 
	C810.575256,724.533142 799.818115,730.830200 788.719421,737.191406 
	C778.917542,742.830322 769.457153,748.405090 759.647583,754.028076 
	C755.102844,756.469543 750.779236,758.672363 746.781677,761.359985 
	C745.393921,762.293030 744.029724,764.410217 743.994751,766.015747 
	C743.798645,775.003113 744.012573,783.999390 743.993591,793.454224 
	C743.963379,812.942261 744.026062,831.968628 743.997986,851.456787 
	C743.907227,876.900085 743.907227,901.881592 743.907227,928.170349 
	C756.373413,920.823547 767.740967,914.124146 779.452026,907.306885 
	C788.233521,902.265869 796.671448,897.342834 805.458557,892.313477 
	C814.237976,887.257935 822.668274,882.308655 831.447144,877.261108 
	C841.558350,871.457214 851.321045,865.751526 861.427246,859.983276 
	C872.232483,853.817383 882.694214,847.714111 893.508911,841.498657 
	C904.282837,835.279297 914.703674,829.172241 925.468506,823.012695 
	C933.289856,818.552063 940.767212,814.143982 948.610474,809.657715 
	C955.985291,805.347961 962.994141,801.116394 970.359253,796.854736 
	C989.809143,785.826416 1008.902771,774.828125 1028.334229,763.833679 
	C1029.119751,763.787964 1029.567383,763.738403 1030.015137,763.688782 
	C1057.366089,779.560791 1084.697144,795.467529 1112.072632,811.296997 
	C1157.460571,837.541931 1202.877319,863.737183 1248.634766,890.001587 
	C1264.210205,899.028503 1279.420654,908.028076 1294.661621,916.975464 
	C1300.648560,920.490051 1306.703857,923.888123 1313.714355,927.904297 
	C1247.878662,965.936401 1182.574829,1003.661194 1117.074097,1041.668213 
	C1098.686035,1052.346436 1080.458496,1062.679321 1062.310425,1073.150024 
	C1005.381836,1105.995361 948.457886,1138.849365 891.628479,1171.865723 
	C887.788147,1174.096802 885.111938,1174.021484 881.315735,1171.820923 
	C813.942749,1132.765747 746.477539,1093.870117 678.696777,1054.876953 
	C662.000854,1045.240601 645.681580,1035.596069 629.272583,1026.106567 
	C572.927979,993.522095 516.545959,961.002380 460.232361,928.364441 
	C459.149414,927.736816 458.102600,925.957336 458.110535,924.722168 
	C458.148804,918.792847 458.556061,912.865845 458.752563,906.477661 
	C458.748657,905.026428 458.891113,904.035522 458.890869,903.044678 
	C458.877533,852.676392 458.852112,802.308105 458.748840,751.478394 
	C458.746216,750.026123 458.889923,749.035278 458.889618,748.044373 
	C458.874451,697.676086 458.846985,647.307861 458.740753,596.478271 
	C458.737030,589.044739 458.878906,582.072449 458.878845,575.100159 
	C458.878571,538.045654 458.842712,500.991180 458.737366,463.475433 
	C458.732697,454.710968 458.938995,446.405884 458.818695,438.105530 
	C458.775116,435.096313 459.651794,433.341461 462.354218,431.778625 
	C493.151855,413.968475 523.854858,395.994934 554.614746,378.119385 
	C562.159973,373.734619 569.819519,369.546631 577.705566,365.026886 
	C598.330200,353.144257 618.740723,341.614685 639.005554,329.834442 
	C667.087036,313.510254 695.035706,296.957642 723.093628,280.592651 
	C730.449707,276.302155 737.999329,272.343414 745.720642,267.994324 
	C768.495972,254.842621 791.025696,241.954865 813.521362,229.007843 
	C836.749146,215.639450 859.969177,202.256912 883.116150,188.749557 
	C885.599731,187.300247 887.320740,187.264236 889.840332,188.725723 
	C938.364746,216.871902 986.953674,244.906860 1035.532715,272.958771 
	C1037.406128,274.040558 1039.313721,275.062897 1041.557617,276.188110 
	C1057.605591,285.531860 1073.229492,294.924774 1089.011475,304.043915 
	C1125.014160,324.846863 1161.116943,345.476868 1197.137085,366.249634 
	C1234.916992,388.037262 1272.648682,409.908691 1310.397461,431.750244 
	C1311.258667,432.248505 1312.072388,432.828369 1313.070801,433.682495 
	C1311.565308,435.007568 1309.897461,436.020294 1308.005737,437.258118 
	C1293.282593,445.725037 1278.783203,453.966858 1264.101807,462.492798 
	C1250.742554,470.333771 1237.565308,477.890625 1224.182007,485.719543 
	C1213.122192,492.158264 1202.268311,498.324951 1191.211914,504.764343 
	C1180.811035,510.836060 1170.612671,516.635071 1160.202393,522.696533 
	C1151.532349,527.901672 1143.074585,532.844299 1134.311523,537.953857 
z"/>
<path fill="#FEFFFE" opacity="1.000000" stroke="none" 
	d="
M165.243149,1731.658936 
	C180.255997,1742.764526 178.215103,1763.749512 161.483002,1771.153198 
	C157.321548,1772.994751 152.529831,1774.129150 147.989090,1774.261841 
	C134.183411,1774.664429 120.358795,1774.424438 106.541588,1774.409180 
	C105.739906,1774.408325 104.938477,1774.181152 103.956284,1774.031860 
	C103.956284,1758.294922 103.956284,1742.695068 103.956284,1726.392944 
	C105.893478,1726.392944 107.659103,1726.375977 109.424316,1726.395752 
	C123.064972,1726.548462 136.726425,1726.325806 150.335144,1727.068115 
	C155.270523,1727.337402 160.079849,1729.918213 165.243149,1731.658936 
z"/>
<path fill="#FFFFFF" opacity="1.000000" stroke="none" 
	d="
M103.754883,1650.998291 
	C103.754822,1640.851440 103.754822,1631.203857 103.754822,1620.830933 
	C107.741386,1620.830933 111.502686,1620.744629 115.258850,1620.846924 
	C126.885727,1621.163452 138.636795,1620.619385 150.101410,1622.170410 
	C161.962158,1623.775024 168.946976,1632.243042 169.421295,1642.445435 
	C170.046814,1655.900269 160.691925,1665.976074 145.251678,1666.848511 
	C131.665756,1667.616211 118.002159,1667.009033 103.754936,1667.009033 
	C103.754936,1661.690063 103.754936,1656.593872 103.754883,1650.998291 
z"/>
<path fill="#FEFFFE" opacity="1.000000" stroke="none" 
	d="
M1040.456055,1705.612549 
	C1051.362305,1723.749878 1052.039062,1741.967773 1041.087280,1759.685425 
	C1025.388550,1785.082153 989.551575,1784.835693 973.567810,1759.638306 
	C962.443481,1742.101562 964.200684,1716.995728 977.652710,1701.273804 
	C994.327698,1681.785645 1024.444458,1683.733887 1040.456055,1705.612549 
z"/>
<path fill="#2CBD83" opacity="1.000000" stroke="none" 
	d="
M1029.984253,763.418213 
	C1029.567383,763.738403 1029.119751,763.787964 1028.209717,763.611938 
	C1027.507812,762.945557 1027.268188,762.504761 1027.028442,762.064087 
	C1027.451904,762.044861 1027.875488,762.025635 1028.616455,761.991455 
	C1029.273804,762.366882 1029.613525,762.757263 1029.984253,763.418213 
z"/>
<path fill="#4CFC99" opacity="1.000000" stroke="none" 
	d="
M1029.532104,599.065186 
	C1035.322754,595.196716 1041.367310,591.231750 1047.603760,587.595520 
	C1064.103027,577.975525 1080.685181,568.497864 1097.584473,558.896484 
	C1100.467773,564.856689 1102.508179,571.153259 1105.625610,576.861511 
	C1115.386719,594.734741 1125.642700,612.336914 1135.535278,630.139465 
	C1143.133667,643.813171 1150.472412,657.631104 1157.946533,671.752197 
	C1145.528931,665.123413 1133.048706,658.202576 1120.663574,651.115112 
	C1097.307129,637.749512 1074.012939,624.275330 1050.676758,610.874023 
	C1043.769897,606.907593 1036.809448,603.034424 1029.532104,599.065186 
z"/>
<path fill="#2AB780" opacity="1.000000" stroke="none" 
	d="
M893.155884,841.610840 
	C882.694214,847.714111 872.232483,853.817383 861.115479,859.824219 
	C853.019165,847.587830 845.388062,835.559204 838.194824,823.274170 
	C831.924316,812.564941 826.368896,801.436951 820.096619,790.728760 
	C812.318359,777.449341 804.031433,764.468750 796.167236,751.238464 
	C793.482849,746.722412 791.412109,741.841492 789.060974,737.127319 
	C799.818115,730.830200 810.575256,724.533142 821.713623,718.529053 
	C823.934265,721.952393 825.781494,725.078247 827.611816,728.214050 
	C833.443481,738.205139 839.304382,748.179321 845.087891,758.198242 
	C852.871277,771.681580 860.487122,785.262695 868.372925,798.685364 
	C875.415771,810.673096 882.769531,822.477722 889.883484,834.424255 
	C891.222107,836.672241 892.077515,839.207947 893.155884,841.610840 
z"/>
<path fill="#23A87A" opacity="1.000000" stroke="none" 
	d="
M893.508911,841.498657 
	C892.077515,839.207947 891.222107,836.672241 889.883484,834.424255 
	C882.769531,822.477722 875.415771,810.673096 868.372925,798.685364 
	C860.487122,785.262695 852.871277,771.681580 845.087891,758.198242 
	C839.304382,748.179321 833.443481,738.205139 827.611816,728.214050 
	C825.781494,725.078247 823.934265,721.952393 822.054321,718.474243 
	C832.785156,711.808289 843.556519,705.489990 854.718994,699.502197 
	C858.654968,707.397766 861.784607,715.193359 865.831238,722.479797 
	C874.125183,737.413696 882.819641,752.128540 891.517029,766.834290 
	C902.632935,785.629150 913.914429,804.326050 925.124512,823.065186 
	C914.703674,829.172241 904.282837,835.279297 893.508911,841.498657 
z"/>
<path fill="#31C787" opacity="1.000000" stroke="none" 
	d="
M788.719421,737.191467 
	C791.412109,741.841492 793.482849,746.722412 796.167236,751.238464 
	C804.031433,764.468750 812.318359,777.449341 820.096619,790.728760 
	C826.368896,801.436951 831.924316,812.564941 838.194824,823.274170 
	C845.388062,835.559204 853.019165,847.587830 860.771851,859.886841 
	C851.321045,865.751526 841.558350,871.457214 831.398254,876.878174 
	C826.411682,868.967834 821.862488,861.317810 817.221130,853.724182 
	C813.271057,847.261475 809.062439,840.952759 805.236206,834.419006 
	C796.544861,819.577393 787.903564,804.703918 779.461365,789.719727 
	C772.803223,777.902100 766.472778,765.899963 759.996765,753.979858 
	C769.457153,748.405090 778.917542,742.830322 788.719421,737.191467 
z"/>
<path fill="#38D58C" opacity="1.000000" stroke="none" 
	d="
M759.647583,754.028076 
	C766.472778,765.899963 772.803223,777.902100 779.461365,789.719727 
	C787.903564,804.703918 796.544861,819.577393 805.236206,834.419006 
	C809.062439,840.952759 813.271057,847.261475 817.221130,853.724182 
	C821.862488,861.317810 826.411682,868.967834 831.049683,876.976379 
	C822.668274,882.308655 814.237976,887.257935 805.408508,891.925415 
	C802.974243,887.889404 801.060669,884.062988 798.882202,880.393921 
	C791.542053,868.032104 784.067993,855.749756 776.719543,843.392822 
	C767.426208,827.765381 758.264832,812.058899 748.862854,796.497437 
	C747.919983,794.936890 745.708984,794.142578 744.086487,792.992615 
	C744.012573,783.999390 743.798645,775.003113 743.994751,766.015747 
	C744.029724,764.410217 745.393921,762.293030 746.781677,761.359985 
	C750.779236,758.672363 755.102844,756.469543 759.647583,754.028076 
z"/>
<path fill="#14886D" opacity="1.000000" stroke="none" 
	d="
M1026.829102,761.783813 
	C1027.268188,762.504761 1027.507812,762.945557 1027.871948,763.608032 
	C1008.902771,774.828125 989.809143,785.826416 970.313721,796.495483 
	C968.467468,793.199280 967.233887,790.105408 965.538818,787.289185 
	C960.580627,779.051453 955.329895,770.989441 950.394775,762.738342 
	C943.494019,751.201111 936.801636,739.539429 929.969116,727.961121 
	C924.913330,719.393738 919.682617,710.927734 914.765747,702.282349 
	C913.925293,700.804565 914.270874,698.652222 914.068481,696.811523 
	C919.535950,700.132874 924.928040,703.586426 930.483398,706.753540 
	C961.945007,724.690186 993.445801,742.558044 1024.931274,760.452759 
	C1025.509766,760.781433 1026.064209,761.152405 1026.829102,761.783813 
z"/>
<path fill="#1C9B75" opacity="1.000000" stroke="none" 
	d="
M925.468567,823.012695 
	C913.914429,804.326050 902.632935,785.629150 891.517029,766.834290 
	C882.819641,752.128540 874.125183,737.413696 865.831238,722.479797 
	C861.784607,715.193359 858.654968,707.397766 855.064880,699.450439 
	C862.427246,694.698364 869.834900,690.328430 877.614136,686.287720 
	C878.612915,688.314697 879.026184,690.132874 879.902893,691.690125 
	C884.671143,700.159851 889.480042,708.608582 894.414124,716.982544 
	C901.811951,729.537781 909.276672,742.054199 916.805237,754.531494 
	C922.447998,763.883301 928.476440,773.010132 933.889771,782.490356 
	C938.976929,791.399597 943.482849,800.640747 948.244507,809.735901 
	C940.767212,814.143982 933.289856,818.552063 925.468567,823.012695 
z"/>
<path fill="#189171" opacity="1.000000" stroke="none" 
	d="
M948.610474,809.657715 
	C943.482849,800.640747 938.976929,791.399597 933.889771,782.490356 
	C928.476440,773.010132 922.447998,763.883301 916.805237,754.531494 
	C909.276672,742.054199 901.811951,729.537781 894.414124,716.982544 
	C889.480042,708.608582 884.671143,700.159851 879.902893,691.690125 
	C879.026184,690.132874 878.612915,688.314697 877.967529,686.229370 
	C878.043396,685.705383 878.114624,685.543213 878.234985,685.436157 
	C883.492188,680.759399 888.476318,680.554199 894.433228,684.919617 
	C900.409668,689.299194 907.225159,692.533752 913.870667,696.540894 
	C914.270874,698.652222 913.925293,700.804565 914.765747,702.282349 
	C919.682617,710.927734 924.913330,719.393738 929.969116,727.961121 
	C936.801636,739.539429 943.494019,751.201111 950.394775,762.738342 
	C955.329895,770.989441 960.580627,779.051453 965.538818,787.289185 
	C967.233887,790.105408 968.467468,793.199280 969.957520,796.525513 
	C962.994141,801.116394 955.985291,805.347961 948.610474,809.657715 
z"/>
<path fill="#3EE290" opacity="1.000000" stroke="none" 
	d="
M743.993591,793.454224 
	C745.708984,794.142578 747.919983,794.936890 748.862854,796.497437 
	C758.264832,812.058899 767.426208,827.765381 776.719543,843.392822 
	C784.067993,855.749756 791.542053,868.032104 798.882202,880.393921 
	C801.060669,884.062988 802.974243,887.889404 805.059326,892.031738 
	C796.671448,897.342834 788.233521,902.265869 779.401733,906.913574 
	C778.349365,905.123169 777.856140,903.507751 777.006531,902.108704 
	C768.367798,887.882202 759.742493,873.646423 750.934326,859.524902 
	C749.018494,856.453369 746.389282,853.826660 744.088745,850.995056 
	C744.026062,831.968628 743.963379,812.942261 743.993591,793.454224 
z"/>
<path fill="#46F395" opacity="1.000000" stroke="none" 
	d="
M743.997925,851.456787 
	C746.389282,853.826660 749.018494,856.453369 750.934326,859.524902 
	C759.742493,873.646423 768.367798,887.882202 777.006531,902.108704 
	C777.856140,903.507751 778.349365,905.123169 779.058289,907.031494 
	C767.740967,914.124146 756.373413,920.823547 743.907227,928.170349 
	C743.907227,901.881592 743.907227,876.900085 743.997925,851.456787 
z"/>
</svg>